<svg width="42" height="38" viewBox="0 0 42 38" fill="none" xmlns="http://www.w3.org/2000/svg">
<path d="M18.9137 0.40625C18.4046 0.40625 17.8954 0.52375 17.4058 0.7L2.99249 6.67292C2.0344 7.06526 1.27133 7.82202 0.871048 8.77682C0.470767 9.73162 0.466038 10.8063 0.857903 11.7646L10.5712 35.1667C10.8581 35.8765 11.3468 36.4866 11.9768 36.9217C12.6067 37.3568 13.3504 37.5976 14.1158 37.6146C14.625 37.6146 15.1537 37.5558 15.6629 37.3208L30.0958 31.3479C30.7924 31.0523 31.3896 30.5631 31.8166 29.9383C32.2435 29.3135 32.4823 28.5793 32.5046 27.8229C32.5241 27.3333 32.4262 26.7654 32.25 26.2563L22.4583 2.85417C22.1815 2.13746 21.6954 1.52066 21.0632 1.08406C20.431 0.647462 19.682 0.411278 18.9137 0.40625V0.40625ZM25.7287 0.40625L32.485 16.7583V4.32292C32.485 3.28415 32.0723 2.28793 31.3378 1.55342C30.6033 0.818897 29.6071 0.40625 28.5683 0.40625H25.7287ZM36.4212 3.42208V21.1058L41.18 9.63C41.3751 9.15563 41.4746 8.6474 41.4729 8.13448C41.4711 7.62155 41.3682 7.11402 41.1698 6.64098C40.9715 6.16794 40.6818 5.7387 40.3172 5.37788C39.9527 5.01706 39.5205 4.73176 39.0454 4.53833L36.4212 3.42208ZM18.9137 4.26417L28.6662 27.8033L14.1942 33.7958L4.44165 10.2763" fill="black"/>
</svg>
