<svg width="44" height="44" viewBox="0 0 44 44" fill="none" xmlns="http://www.w3.org/2000/svg">
<mask id="path-1-outside-1_290_7" maskUnits="userSpaceOnUse" x="0.829346" y="0.800537" width="43" height="43" fill="black">
<rect fill="white" x="0.829346" y="0.800537" width="43" height="43"/>
<path d="M23.6967 3.50322C23.2466 3.05329 22.6362 2.80054 21.9999 2.80054C21.3635 2.80054 20.7531 3.05329 20.3031 3.50322L3.50305 20.3032C3.06587 20.7559 2.82397 21.3621 2.82944 21.9914C2.8349 22.6207 3.08731 23.2226 3.53229 23.6676C3.97727 24.1126 4.57922 24.365 5.20849 24.3704C5.83776 24.3759 6.44401 24.134 6.89665 23.6968L7.59985 22.9936V38.8C7.59985 39.4365 7.85271 40.047 8.3028 40.4971C8.75289 40.9472 9.36333 41.2 9.99985 41.2H14.7999C15.4364 41.2 16.0468 40.9472 16.4969 40.4971C16.947 40.047 17.1999 39.4365 17.1999 38.8V34C17.1999 33.3635 17.4527 32.7531 17.9028 32.303C18.3529 31.8529 18.9633 31.6 19.5999 31.6H24.3999C25.0364 31.6 25.6468 31.8529 26.0969 32.303C26.547 32.7531 26.7999 33.3635 26.7999 34V38.8C26.7999 39.4365 27.0527 40.047 27.5028 40.4971C27.9529 40.9472 28.5633 41.2 29.1999 41.2H33.9999C34.6364 41.2 35.2468 40.9472 35.6969 40.4971C36.147 40.047 36.3999 39.4365 36.3999 38.8V22.9936L37.1031 23.6968C37.5557 24.134 38.1619 24.3759 38.7912 24.3704C39.4205 24.365 40.0224 24.1126 40.4674 23.6676C40.9124 23.2226 41.1648 22.6207 41.1703 21.9914C41.1757 21.3621 40.9338 20.7559 40.4967 20.3032L23.6967 3.50322V3.50322Z"/>
</mask>
<path d="M23.6967 3.50322C23.2466 3.05329 22.6362 2.80054 21.9999 2.80054C21.3635 2.80054 20.7531 3.05329 20.3031 3.50322L3.50305 20.3032C3.06587 20.7559 2.82397 21.3621 2.82944 21.9914C2.8349 22.6207 3.08731 23.2226 3.53229 23.6676C3.97727 24.1126 4.57922 24.365 5.20849 24.3704C5.83776 24.3759 6.44401 24.134 6.89665 23.6968L7.59985 22.9936V38.8C7.59985 39.4365 7.85271 40.047 8.3028 40.4971C8.75289 40.9472 9.36333 41.2 9.99985 41.2H14.7999C15.4364 41.2 16.0468 40.9472 16.4969 40.4971C16.947 40.047 17.1999 39.4365 17.1999 38.8V34C17.1999 33.3635 17.4527 32.7531 17.9028 32.303C18.3529 31.8529 18.9633 31.6 19.5999 31.6H24.3999C25.0364 31.6 25.6468 31.8529 26.0969 32.303C26.547 32.7531 26.7999 33.3635 26.7999 34V38.8C26.7999 39.4365 27.0527 40.047 27.5028 40.4971C27.9529 40.9472 28.5633 41.2 29.1999 41.2H33.9999C34.6364 41.2 35.2468 40.9472 35.6969 40.4971C36.147 40.047 36.3999 39.4365 36.3999 38.8V22.9936L37.1031 23.6968C37.5557 24.134 38.1619 24.3759 38.7912 24.3704C39.4205 24.365 40.0224 24.1126 40.4674 23.6676C40.9124 23.2226 41.1648 22.6207 41.1703 21.9914C41.1757 21.3621 40.9338 20.7559 40.4967 20.3032L23.6967 3.50322V3.50322Z" stroke="black" stroke-width="4" stroke-linecap="round" mask="url(#path-1-outside-1_290_7)"/>
</svg>
