<svg width="40" height="40" viewBox="0 0 40 40" fill="none" xmlns="http://www.w3.org/2000/svg">
<path d="M21.6967 1.50322C21.2466 1.05329 20.6362 0.800537 19.9999 0.800537C19.3635 0.800537 18.7531 1.05329 18.3031 1.50322L1.50305 18.3032C1.06587 18.7559 0.823968 19.3621 0.829436 19.9914C0.834905 20.6207 1.08731 21.2226 1.53229 21.6676C1.97727 22.1126 2.57922 22.365 3.20849 22.3704C3.83776 22.3759 4.44401 22.134 4.89665 21.6968L5.59985 20.9936V36.8C5.59985 37.4365 5.85271 38.047 6.3028 38.4971C6.75289 38.9472 7.36333 39.2 7.99985 39.2H12.7999C13.4364 39.2 14.0468 38.9472 14.4969 38.4971C14.947 38.047 15.1999 37.4365 15.1999 36.8V32C15.1999 31.3635 15.4527 30.7531 15.9028 30.303C16.3529 29.8529 16.9633 29.6 17.5999 29.6H22.3999C23.0364 29.6 23.6468 29.8529 24.0969 30.303C24.547 30.7531 24.7999 31.3635 24.7999 32V36.8C24.7999 37.4365 25.0527 38.047 25.5028 38.4971C25.9529 38.9472 26.5633 39.2 27.1999 39.2H31.9999C32.6364 39.2 33.2468 38.9472 33.6969 38.4971C34.147 38.047 34.3999 37.4365 34.3999 36.8V20.9936L35.1031 21.6968C35.5557 22.134 36.1619 22.3759 36.7912 22.3704C37.4205 22.365 38.0224 22.1126 38.4674 21.6676C38.9124 21.2226 39.1648 20.6207 39.1703 19.9914C39.1757 19.3621 38.9338 18.7559 38.4967 18.3032L21.6967 1.50322V1.50322Z" fill="white"/>
</svg>
