<svg width="53" height="53" viewBox="0 0 53 53" fill="none" xmlns="http://www.w3.org/2000/svg">
<path d="M28.5759 48.5834H24.4022C23.4182 48.5834 22.4746 48.1925 21.7788 47.4968C21.083 46.801 20.6922 45.8574 20.6922 44.8734V42.4663C20.6802 42.3245 20.6282 42.189 20.5422 42.0756C20.4562 41.9622 20.3397 41.8756 20.2063 41.8259C20.0712 41.7393 19.9141 41.6933 19.7536 41.6933C19.5931 41.6933 19.436 41.7393 19.3009 41.8259L17.6667 43.5926C17.324 43.9378 16.9163 44.2117 16.4671 44.3987C16.018 44.5857 15.5364 44.6819 15.0499 44.6819C14.5634 44.6819 14.0817 44.5857 13.6326 44.3987C13.1835 44.2117 12.7758 43.9378 12.433 43.5926L9.40758 40.6334C9.05738 40.2913 8.77925 39.8825 8.58961 39.4312C8.39997 38.9798 8.30266 38.4951 8.30341 38.0055C8.30483 37.0041 8.70167 36.0437 9.40758 35.3334L11.0417 33.6992C11.1206 33.5776 11.1626 33.4357 11.1626 33.2907C11.1626 33.1457 11.1206 33.0038 11.0417 32.8822C10.9092 32.5509 10.6884 32.308 10.3792 32.308H8.12675C7.14077 32.3022 6.19716 31.9064 5.50203 31.2071C4.8069 30.5078 4.41673 29.5619 4.41675 28.5759V24.4022C4.41675 23.4182 4.80762 22.4746 5.50338 21.7788C6.19914 21.083 7.14279 20.6922 8.12675 20.6922H10.5338C10.6756 20.6802 10.8111 20.6282 10.9245 20.5422C11.0379 20.4562 11.1245 20.3397 11.1742 20.2063C11.2608 20.0712 11.3068 19.9141 11.3068 19.7536C11.3068 19.5931 11.2608 19.436 11.1742 19.3009L9.40758 17.6667C9.06239 17.324 8.78842 16.9163 8.60146 16.4671C8.41451 16.018 8.31826 15.5364 8.31826 15.0499C8.31826 14.5634 8.41451 14.0817 8.60146 13.6326C8.78842 13.1835 9.06239 12.7758 9.40758 12.433L12.3667 9.40758C12.7055 9.05904 13.1106 8.7818 13.5581 8.59217C14.0056 8.40254 14.4865 8.30436 14.9726 8.30341C15.4722 8.30122 15.9674 8.39762 16.4297 8.58709C16.892 8.77657 17.3124 9.05539 17.6667 9.40758L19.3009 11.0417C19.4226 11.1206 19.5645 11.1626 19.7095 11.1626C19.8545 11.1626 19.9963 11.1206 20.118 11.0417C20.4492 10.9092 20.6922 10.6884 20.6922 10.3792V8.12675C20.698 7.14077 21.0938 6.19716 21.793 5.50203C22.4923 4.8069 23.4383 4.41673 24.4242 4.41675H28.7084C29.6924 4.41675 30.636 4.80762 31.3318 5.50338C32.0275 6.19914 32.4184 7.14279 32.4184 8.12675V10.5338C32.4304 10.6756 32.4824 10.8111 32.5684 10.9245C32.6544 11.0379 32.7709 11.1245 32.9042 11.1742C33.0394 11.2608 33.1965 11.3068 33.357 11.3068C33.5174 11.3068 33.6745 11.2608 33.8097 11.1742L35.3334 9.40758C35.6762 9.06239 36.0839 8.78842 36.533 8.60146C36.9821 8.41451 37.4638 8.31826 37.9503 8.31826C38.4368 8.31826 38.9184 8.41451 39.3676 8.60146C39.8167 8.78842 40.2244 9.06239 40.5672 9.40758L43.5926 12.3667C43.9418 12.7096 44.2193 13.1185 44.4088 13.5697C44.5984 14.0209 44.6963 14.5053 44.6967 14.9947C44.7074 15.4922 44.6148 15.9865 44.4247 16.4464C44.2347 16.9064 43.9513 17.3219 43.5926 17.6667L41.9584 19.3009C41.8795 19.4226 41.8375 19.5645 41.8375 19.7095C41.8375 19.8545 41.8795 19.9963 41.9584 20.118C42.0909 20.4492 42.3117 20.6922 42.6209 20.6922H45.028C45.9869 20.7376 46.8914 21.1508 47.5535 21.8458C48.2156 22.5409 48.5845 23.4643 48.5834 24.4242V28.7084C48.5834 29.6924 48.1925 30.636 47.4968 31.3318C46.801 32.0275 45.8574 32.4184 44.8734 32.4184H42.4663C42.3245 32.4304 42.189 32.4824 42.0756 32.5684C41.9622 32.6544 41.8756 32.7709 41.8259 32.9042C41.747 33.0259 41.705 33.1678 41.705 33.3128C41.705 33.4578 41.747 33.5997 41.8259 33.7213L43.5263 35.4217C43.8715 35.7645 44.1455 36.1722 44.3325 36.6213C44.5194 37.0705 44.6157 37.5521 44.6157 38.0386C44.6157 38.5251 44.5194 39.0068 44.3325 39.4559C44.1455 39.905 43.8715 40.3127 43.5263 40.6555L40.6334 43.5926C40.2947 43.9411 39.8896 44.2184 39.4421 44.408C38.9946 44.5976 38.5136 44.6958 38.0276 44.6967C37.0415 44.6838 36.0991 44.2878 35.3997 43.5926L33.6992 41.9584C33.5776 41.8795 33.4357 41.8375 33.2907 41.8375C33.1457 41.8375 33.0038 41.8795 32.8822 41.9584C32.5509 42.0909 32.308 42.3117 32.308 42.6209V45.028C32.2626 45.9869 31.8494 46.8914 31.1543 47.5535C30.4593 48.2156 29.5359 48.5845 28.5759 48.5834ZM25.1088 44.1667H27.8913V42.4663C27.9007 41.448 28.2121 40.4553 28.7861 39.614C29.36 38.7728 30.1707 38.1207 31.1155 37.7405C32.0641 37.3258 33.1148 37.2031 34.1334 37.388C35.1521 37.5728 36.0926 38.0569 36.8351 38.7784L38.0276 39.9709L39.9709 38.0276L38.7784 36.813C38.0614 36.0818 37.5779 35.154 37.3892 34.1474C37.2004 33.1409 37.315 32.101 37.7184 31.1597C38.1021 30.219 38.7556 29.413 39.5966 28.8432C40.4376 28.2733 41.4284 27.9652 42.4442 27.9576H44.1667V25.1088H42.4663C41.448 25.0994 40.4553 24.788 39.614 24.2141C38.7728 23.6401 38.1207 22.8294 37.7405 21.8847C37.3258 20.936 37.2031 19.8854 37.388 18.8667C37.5728 17.8481 38.0569 16.9075 38.7784 16.1651L39.9709 14.9726L38.0276 13.0292L36.813 14.2217C36.0704 14.9001 35.1494 15.3521 34.1586 15.5246C33.1677 15.697 32.1481 15.5828 31.22 15.1953C30.2919 14.8078 29.4938 14.1632 28.9197 13.3373C28.3456 12.5115 28.0195 11.5388 27.9797 10.5338V8.83341H25.1088V10.5338C25.0994 11.5522 24.788 12.5449 24.2141 13.3861C23.6401 14.2274 22.8294 14.8794 21.8847 15.2597C20.936 15.6743 19.8854 15.7971 18.8667 15.6122C17.8481 15.4273 16.9075 14.9433 16.1651 14.2217L14.9726 13.0292L13.0292 14.9726L14.2217 16.1872C14.9001 16.9298 15.3521 17.8507 15.5246 18.8416C15.697 19.8325 15.5828 20.852 15.1953 21.7801C14.8078 22.7083 14.1632 23.5064 13.3373 24.0804C12.5115 24.6545 11.5388 24.9807 10.5338 25.0205H8.83341V27.803H10.5338C11.5522 27.8124 12.5449 28.1238 13.3861 28.6978C14.2274 29.2717 14.8794 30.0824 15.2597 31.0272C15.6743 31.9758 15.7971 33.0264 15.6122 34.0451C15.4273 35.0638 14.9433 36.0043 14.2217 36.7467L13.0292 37.9392L14.9726 39.8826L16.1872 38.6901C16.9298 38.0118 17.8507 37.5597 18.8416 37.3873C19.8325 37.2148 20.852 37.329 21.7801 37.7165C22.7083 38.104 23.5064 38.7486 24.0804 39.5745C24.6545 40.4003 24.9807 41.373 25.0205 42.378L25.1088 44.1667Z" fill="black"/>
<path d="M26.4999 34.2291C24.9712 34.2291 23.4769 33.7758 22.2058 32.9265C20.9348 32.0772 19.9441 30.8701 19.3591 29.4577C18.7741 28.0454 18.621 26.4913 18.9193 24.992C19.2175 23.4927 19.9536 22.1155 21.0346 21.0346C22.1155 19.9536 23.4927 19.2175 24.992 18.9193C26.4913 18.621 28.0454 18.7741 29.4577 19.3591C30.8701 19.9441 32.0772 20.9348 32.9265 22.2058C33.7758 23.4769 34.2291 24.9712 34.2291 26.4999C34.2291 28.5498 33.4148 30.5158 31.9653 31.9653C30.5158 33.4148 28.5498 34.2291 26.4999 34.2291ZM26.4999 23.1874C25.8448 23.1874 25.2043 23.3817 24.6596 23.7457C24.1149 24.1097 23.6903 24.627 23.4396 25.2323C23.1889 25.8376 23.1233 26.5036 23.2511 27.1462C23.3789 27.7887 23.6944 28.379 24.1576 28.8422C24.6209 29.3055 25.2111 29.621 25.8537 29.7488C26.4962 29.8766 27.1623 29.811 27.7676 29.5603C28.3728 29.3096 28.8902 28.885 29.2542 28.3403C29.6182 27.7955 29.8124 27.1551 29.8124 26.4999C29.8124 25.6214 29.4634 24.7788 28.8422 24.1576C28.221 23.5364 27.3785 23.1874 26.4999 23.1874Z" fill="black"/>
</svg>
