<svg width="45" height="41" viewBox="0 0 45 41" fill="none" xmlns="http://www.w3.org/2000/svg">
<path d="M22.5 23.5625C24.3294 23.5625 25.8125 22.1914 25.8125 20.5C25.8125 18.8086 24.3294 17.4375 22.5 17.4375C20.6706 17.4375 19.1875 18.8086 19.1875 20.5C19.1875 22.1914 20.6706 23.5625 22.5 23.5625Z" fill="white"/>
<path d="M40.8734 15.1303H38.4663C38.1572 15.1303 37.9363 14.9058 37.8038 14.5995C37.7249 14.487 37.683 14.3558 37.683 14.2218C37.683 14.0877 37.7249 13.9566 37.8038 13.8441L39.5926 12.3333C39.9431 12.0215 40.2217 11.6473 40.4115 11.2332C40.6013 10.8191 40.6983 10.3738 40.6967 9.92408C40.6963 9.47164 40.5984 9.0238 40.4088 8.60668C40.2193 8.18956 39.9418 7.81149 39.5926 7.4945L36.6334 4.69742C36.2906 4.37827 35.8829 4.12499 35.4338 3.95214C34.9847 3.77929 34.503 3.69031 34.0165 3.69031C33.5301 3.69031 33.0484 3.77929 32.5993 3.95214C32.1501 4.12499 31.7425 4.37827 31.3997 4.69742L29.6992 6.20825C29.5641 6.28829 29.407 6.33083 29.2465 6.33083C29.0861 6.33083 28.929 6.28829 28.7938 6.20825C28.6605 6.16228 28.544 6.08221 28.458 5.97738C28.372 5.87255 28.32 5.74728 28.308 5.61617V3.51325C28.3084 2.62097 27.9327 1.76366 27.2607 1.12327C26.5886 0.482872 25.6731 0.109808 24.7084 0.083252H20.4242C19.4383 0.083236 18.4923 0.443957 17.793 1.08663C17.0938 1.7293 16.698 2.60169 16.6922 3.51325V5.73867C16.6922 6.0245 16.4492 6.22867 16.118 6.35117C15.9963 6.42411 15.8545 6.46292 15.7095 6.46292C15.5645 6.46292 15.4226 6.42411 15.3009 6.35117L13.6667 4.69742C12.9673 4.05464 12.0249 3.68856 11.0388 3.67658C10.5528 3.67746 10.0719 3.76823 9.62433 3.94355C9.17681 4.11886 8.77175 4.37518 8.433 4.69742L5.40758 7.43325C5.05229 7.75117 4.76978 8.13189 4.57684 8.55278C4.3839 8.97366 4.28447 9.42612 4.28447 9.88325C4.28447 10.3404 4.3839 10.7928 4.57684 11.2137C4.76978 11.6346 5.05229 12.0153 5.40758 12.3333L7.04175 13.8441C7.12832 13.969 7.17433 14.1143 7.17433 14.2626C7.17433 14.411 7.12832 14.5562 7.04175 14.6812C6.99202 14.8045 6.90542 14.9121 6.79203 14.9917C6.67865 15.0712 6.54315 15.1193 6.40133 15.1303H4.12675C3.14279 15.1303 2.19914 15.4917 1.50338 16.135C0.807622 16.7782 0.416748 17.6506 0.416748 18.5603V22.4191C0.416731 23.3307 0.806899 24.2052 1.50203 24.8517C2.19716 25.4982 3.14077 25.8641 4.12675 25.8695H6.53383C6.843 25.8695 7.06383 26.0941 7.19633 26.4003C7.27523 26.5128 7.31721 26.644 7.31721 26.778C7.31721 26.9121 7.27523 27.0433 7.19633 27.1558L5.40758 28.6666C4.71233 29.3132 4.31636 30.1845 4.30341 31.0962C4.30266 31.5488 4.39997 31.997 4.58961 32.4142C4.77925 32.8315 5.05738 33.2095 5.40758 33.5257L8.36675 36.3024C8.70953 36.6216 9.11723 36.8748 9.56635 37.0477C10.0155 37.2205 10.4971 37.3095 10.9836 37.3095C11.4701 37.3095 11.9518 37.2205 12.4009 37.0477C12.85 36.8748 13.2577 36.6216 13.6005 36.3024L15.3009 34.7916C15.436 34.7115 15.5931 34.669 15.7536 34.669C15.9141 34.669 16.0712 34.7115 16.2063 34.7916C16.3397 34.8376 16.4562 34.9176 16.5422 35.0225C16.6282 35.1273 16.6802 35.2526 16.6922 35.3837V37.6091C16.7265 38.4974 17.1325 39.3387 17.8246 39.9556C18.5166 40.5726 19.4407 40.9171 20.4022 40.9166H24.5759C25.5619 40.9166 26.5078 40.5559 27.2071 39.9132C27.9064 39.2705 28.3022 38.3981 28.308 37.4866V35.2612C28.308 34.9753 28.5509 34.7712 28.8822 34.6487C29.0038 34.5757 29.1457 34.5369 29.2907 34.5369C29.4357 34.5369 29.5776 34.5757 29.6992 34.6487L31.3776 36.2208C32.077 36.8635 33.0194 37.2296 34.0055 37.2416C34.4915 37.2407 34.9725 37.1499 35.42 36.9746C35.8675 36.7993 36.2726 36.543 36.6113 36.2208L39.5705 33.4849C39.9157 33.168 40.1897 32.7911 40.3766 32.3758C40.5636 31.9606 40.6598 31.5153 40.6598 31.0655C40.6598 30.6158 40.5636 30.1705 40.3766 29.7552C40.1897 29.34 39.9157 28.9631 39.5705 28.6462L37.9584 27.1558C37.8795 27.0433 37.8375 26.9121 37.8375 26.778C37.8375 26.644 37.8795 26.5128 37.9584 26.4003C38.0081 26.277 38.0947 26.1694 38.2081 26.0898C38.3215 26.0103 38.457 25.9622 38.5988 25.9512H41.0059C41.9629 25.9196 42.8696 25.5471 43.5364 24.9116C44.2032 24.2761 44.5783 23.4269 44.5834 22.5416V18.5808C44.5834 17.6692 44.1933 16.7946 43.4981 16.1481C42.803 15.5016 41.8594 15.1357 40.8734 15.1303V15.1303ZM22.5001 27.6457C20.9714 27.6457 19.477 27.2267 18.206 26.4415C16.9349 25.6563 15.9443 24.5402 15.3593 23.2345C14.7743 21.9288 14.6212 20.492 14.9194 19.1058C15.2177 17.7197 15.9538 16.4464 17.0347 15.4471C18.1157 14.4477 19.4929 13.7671 20.9922 13.4914C22.4915 13.2157 24.0456 13.3572 25.4579 13.898C26.8702 14.4389 28.0774 15.3548 28.9266 16.5299C29.7759 17.705 30.2292 19.0866 30.2292 20.4999C30.2292 22.3951 29.4149 24.2127 27.9654 25.5528C26.5159 26.8929 24.55 27.6457 22.5001 27.6457V27.6457Z" fill="white"/>
</svg>
