<svg width="49" height="45" viewBox="0 0 49 45" fill="none" xmlns="http://www.w3.org/2000/svg">
<path d="M41.9017 35.7879C42.9617 34.0875 43.558 32.1 43.4255 29.9138C43.1384 25.1659 39.3621 21.1467 34.6584 20.6388C33.2658 20.4768 31.8548 20.6113 30.5179 21.0334C29.181 21.4555 27.9485 22.1557 26.9015 23.088C25.8545 24.0203 25.0166 25.1636 24.4428 26.4428C23.8691 27.722 23.5725 29.1081 23.5726 30.51C23.5726 36.0088 28.0113 40.4475 33.488 40.4475C35.4313 40.4475 37.2421 39.8734 38.7659 38.9017L44.088 44.2238C44.9492 45.085 46.3626 45.085 47.2238 44.2238C48.0851 43.3625 48.0851 41.9492 47.2238 41.0879L41.9017 35.7879ZM33.5101 36.0309C32.0458 36.0309 30.6416 35.4492 29.6062 34.4138C28.5709 33.3785 27.9892 31.9742 27.9892 30.51C27.9892 29.0458 28.5709 27.6416 29.6062 26.6062C30.6416 25.5708 32.0458 24.9892 33.5101 24.9892C34.9743 24.9892 36.3785 25.5708 37.4139 26.6062C38.4492 27.6416 39.0309 29.0458 39.0309 30.51C39.0309 31.9742 38.4492 33.3785 37.4139 34.4138C36.3785 35.4492 34.9743 36.0309 33.5101 36.0309ZM32.7151 17.26C31.0809 17.3042 29.513 17.6575 28.0776 18.2538L26.863 16.4209L20.0613 27.4846C19.8796 27.7809 19.6305 28.0302 19.3342 28.2121C19.038 28.3939 18.703 28.5033 18.3565 28.5313C18.01 28.5593 17.6618 28.505 17.3403 28.3731C17.0187 28.2411 16.7328 28.035 16.5059 27.7717L11.8242 22.3171L5.06673 33.1379C4.38214 34.22 2.92464 34.5071 1.88672 33.7563C0.959225 33.0717 0.694225 31.7909 1.31256 30.7971L9.66006 17.4367C10.4551 16.1779 12.2438 16.0454 13.2155 17.1717L17.8751 22.6042L24.8976 11.1871C25.0906 10.8716 25.3602 10.6099 25.6812 10.4261C26.0023 10.2424 26.3645 10.1426 26.7344 10.136C27.1042 10.1294 27.4698 10.2162 27.7972 10.3884C28.1246 10.5605 28.4033 10.8124 28.6076 11.1209L32.7151 17.26V17.26ZM38.4346 18.3642C37.0213 17.7459 35.4976 17.3704 33.9076 17.2821L43.9334 1.4042C44.618 0.322112 46.0755 0.0571119 47.0913 0.807945C48.0409 1.49253 48.2838 2.79544 47.6655 3.76711L38.4346 18.3642V18.3642Z" fill="white"/>
</svg>
