<svg width="112" height="130" viewBox="0 0 112 130" fill="none" xmlns="http://www.w3.org/2000/svg">
<path d="M74.5 0.166641H37.5V12.5H74.5V0.166641ZM49.8333 80.3333H62.1667V43.3333H49.8333V80.3333ZM99.3517 39.5716L108.108 30.815C105.457 27.67 102.558 24.71 99.4133 22.12L90.6567 30.8766C81.0983 23.23 69.0733 18.6666 56 18.6666C25.3517 18.6666 0.5 43.5183 0.5 74.1667C0.5 104.815 25.29 129.667 56 129.667C86.71 129.667 111.5 104.815 111.5 74.1667C111.5 61.0933 106.937 49.0683 99.3517 39.5716ZM56 117.333C32.135 117.333 12.8333 98.0317 12.8333 74.1667C12.8333 50.3016 32.135 31 56 31C79.865 31 99.1667 50.3016 99.1667 74.1667C99.1667 98.0317 79.865 117.333 56 117.333Z" fill="#7A7A7A"/>
</svg>
